<svg width="71" height="74" viewBox="0 0 71 74" fill="none" xmlns="http://www.w3.org/2000/svg">
<g filter="url(#filter0_di_6954_39898)">
<rect x="16" width="34" height="34" rx="17" fill="#398A9C" shape-rendering="crispEdges"/>
<path d="M31.376 22.6553V17.9238C31.376 17.7578 31.4272 17.6235 31.5298 17.521C31.6323 17.4185 31.769 17.3672 31.9399 17.3672H35.0674C35.2383 17.3672 35.3726 17.4185 35.4702 17.521C35.5728 17.6235 35.624 17.7578 35.624 17.9238V22.6553H31.376ZM25.3848 15.8291C25.1895 15.8291 25.0356 15.7705 24.9233 15.6533C24.811 15.5312 24.7549 15.3945 24.7549 15.2432C24.7549 15.0527 24.833 14.894 24.9893 14.7671L32.6211 8.3584C32.8945 8.12402 33.1875 8.00684 33.5 8.00684C33.8125 8.00684 34.1055 8.12402 34.3789 8.3584L42.0107 14.7671C42.167 14.894 42.2451 15.0527 42.2451 15.2432C42.2451 15.3945 42.189 15.5312 42.0767 15.6533C41.9692 15.7705 41.8154 15.8291 41.6152 15.8291C41.5127 15.8291 41.4175 15.8047 41.3296 15.7559C41.2466 15.707 41.1685 15.6533 41.0952 15.5947L33.7563 9.43506C33.6782 9.3667 33.5928 9.33252 33.5 9.33252C33.4072 9.33252 33.3218 9.3667 33.2437 9.43506L25.9121 15.5947C25.834 15.6533 25.751 15.707 25.6631 15.7559C25.5801 15.8047 25.4873 15.8291 25.3848 15.8291ZM38.2681 11.9399V10.1895C38.2681 10.0283 38.3169 9.90137 38.4146 9.80859C38.5122 9.71094 38.6392 9.66211 38.7954 9.66211H39.5791C39.7402 9.66211 39.8672 9.71094 39.96 9.80859C40.0576 9.90137 40.1064 10.0283 40.1064 10.1895V13.4927L38.2681 11.9399ZM28.5488 23.4097C28.0264 23.4097 27.6187 23.2681 27.3257 22.9849C27.0376 22.7065 26.8936 22.3086 26.8936 21.791V13.6758L28.0728 12.8848V21.498C28.0728 21.7373 28.1338 21.918 28.2559 22.04C28.3828 22.167 28.5635 22.2305 28.7979 22.2305H38.2095C38.4438 22.2305 38.6221 22.167 38.7441 22.04C38.8662 21.918 38.9272 21.7373 38.9272 21.498V12.8774L40.1064 13.6758V21.791C40.1064 22.3037 39.9624 22.7017 39.6743 22.9849C39.3862 23.2681 38.981 23.4097 38.4585 23.4097H28.5488Z" fill="white"/>
</g>
<defs>
<filter id="filter0_di_6954_39898" x="0.32" y="0" width="69.96" height="73.88" filterUnits="userSpaceOnUse" color-interpolation-filters="sRGB">
<feFlood flood-opacity="0" result="BackgroundImageFix"/>
<feColorMatrix in="SourceAlpha" type="matrix" values="0 0 0 0 0 0 0 0 0 0 0 0 0 0 0 0 0 0 127 0" result="hardAlpha"/>
<feOffset dx="2.3" dy="21.9"/>
<feGaussianBlur stdDeviation="8.99"/>
<feComposite in2="hardAlpha" operator="out"/>
<feColorMatrix type="matrix" values="0 0 0 0 0 0 0 0 0 0 0 0 0 0 0 0 0 0 0.5 0"/>
<feBlend mode="normal" in2="BackgroundImageFix" result="effect1_dropShadow_6954_39898"/>
<feBlend mode="normal" in="SourceGraphic" in2="effect1_dropShadow_6954_39898" result="shape"/>
<feColorMatrix in="SourceAlpha" type="matrix" values="0 0 0 0 0 0 0 0 0 0 0 0 0 0 0 0 0 0 127 0" result="hardAlpha"/>
<feOffset dx="1.73" dy="2.3"/>
<feGaussianBlur stdDeviation="2.015"/>
<feComposite in2="hardAlpha" operator="arithmetic" k2="-1" k3="1"/>
<feColorMatrix type="matrix" values="0 0 0 0 0 0 0 0 0 0 0 0 0 0 0 0 0 0 0.25 0"/>
<feBlend mode="normal" in2="shape" result="effect2_innerShadow_6954_39898"/>
</filter>
</defs>
</svg>
