<svg width="216" height="84" viewBox="0 0 216 84" fill="none" xmlns="http://www.w3.org/2000/svg">
<g filter="url(#filter0_di_6954_39908)">
<rect x="16" y="10" width="34" height="34" rx="17" fill="#398A9C"/>
<path fill-rule="evenodd" clip-rule="evenodd" d="M34.2668 27.445C37.3409 27.445 40.1568 29.1517 41.7426 31.9367C41.5576 27.6125 37.9218 24.1509 33.4809 24.1509H32.5059V20.5092L25.0834 26.1125L32.5059 31.6433V27.465L33.1209 27.4559C33.1209 27.4559 33.8426 27.445 34.2668 27.445ZM42.1075 36.1458C42.1075 36.1458 41.8367 35.1625 41.5058 34.2958C41.2767 33.6958 41.0075 33.1467 40.9283 32.985C39.62 30.3275 37.0467 28.695 34.2667 28.695C34.1183 28.695 33.9333 28.6958 33.7558 28.6983V34.1333L23 26.1192L33.7558 18V22.9042C38.8783 23.0483 43 27.2008 43 32.2833C43 33.3317 42.8317 34.1225 42.7642 34.3908C42.7117 34.6017 42.6167 34.9183 42.5008 35.2183C42.3183 35.6975 42.1075 36.1458 42.1075 36.1458Z" fill="white"/>
</g>
<g filter="url(#filter1_di_6954_39908)">
<rect x="161" y="10" width="34" height="34" rx="17" fill="#398A9C" shape-rendering="crispEdges"/>
<path d="M176.376 32.6553V27.9238C176.376 27.7578 176.427 27.6235 176.53 27.521C176.632 27.4185 176.769 27.3672 176.94 27.3672H180.067C180.238 27.3672 180.373 27.4185 180.47 27.521C180.573 27.6235 180.624 27.7578 180.624 27.9238V32.6553H176.376ZM170.385 25.8291C170.189 25.8291 170.036 25.7705 169.923 25.6533C169.811 25.5312 169.755 25.3945 169.755 25.2432C169.755 25.0527 169.833 24.894 169.989 24.7671L177.621 18.3584C177.895 18.124 178.188 18.0068 178.5 18.0068C178.812 18.0068 179.105 18.124 179.379 18.3584L187.011 24.7671C187.167 24.894 187.245 25.0527 187.245 25.2432C187.245 25.3945 187.189 25.5312 187.077 25.6533C186.969 25.7705 186.815 25.8291 186.615 25.8291C186.513 25.8291 186.417 25.8047 186.33 25.7559C186.247 25.707 186.168 25.6533 186.095 25.5947L178.756 19.4351C178.678 19.3667 178.593 19.3325 178.5 19.3325C178.407 19.3325 178.322 19.3667 178.244 19.4351L170.912 25.5947C170.834 25.6533 170.751 25.707 170.663 25.7559C170.58 25.8047 170.487 25.8291 170.385 25.8291ZM183.268 21.9399V20.1895C183.268 20.0283 183.317 19.9014 183.415 19.8086C183.512 19.7109 183.639 19.6621 183.795 19.6621H184.579C184.74 19.6621 184.867 19.7109 184.96 19.8086C185.058 19.9014 185.106 20.0283 185.106 20.1895V23.4927L183.268 21.9399ZM173.549 33.4097C173.026 33.4097 172.619 33.2681 172.326 32.9849C172.038 32.7065 171.894 32.3086 171.894 31.791V23.6758L173.073 22.8848V31.498C173.073 31.7373 173.134 31.918 173.256 32.04C173.383 32.167 173.563 32.2305 173.798 32.2305H183.209C183.444 32.2305 183.622 32.167 183.744 32.04C183.866 31.918 183.927 31.7373 183.927 31.498V22.8774L185.106 23.6758V31.791C185.106 32.3037 184.962 32.7017 184.674 32.9849C184.386 33.2681 183.981 33.4097 183.458 33.4097H173.549Z" fill="white"/>
</g>
<defs>
<filter id="filter0_di_6954_39908" x="0.32" y="10" width="69.96" height="73.88" filterUnits="userSpaceOnUse" color-interpolation-filters="sRGB">
<feFlood flood-opacity="0" result="BackgroundImageFix"/>
<feColorMatrix in="SourceAlpha" type="matrix" values="0 0 0 0 0 0 0 0 0 0 0 0 0 0 0 0 0 0 127 0" result="hardAlpha"/>
<feOffset dx="2.3" dy="21.9"/>
<feGaussianBlur stdDeviation="8.99"/>
<feComposite in2="hardAlpha" operator="out"/>
<feColorMatrix type="matrix" values="0 0 0 0 0 0 0 0 0 0 0 0 0 0 0 0 0 0 0.5 0"/>
<feBlend mode="normal" in2="BackgroundImageFix" result="effect1_dropShadow_6954_39908"/>
<feBlend mode="normal" in="SourceGraphic" in2="effect1_dropShadow_6954_39908" result="shape"/>
<feColorMatrix in="SourceAlpha" type="matrix" values="0 0 0 0 0 0 0 0 0 0 0 0 0 0 0 0 0 0 127 0" result="hardAlpha"/>
<feOffset dx="1.73" dy="2.3"/>
<feGaussianBlur stdDeviation="2.015"/>
<feComposite in2="hardAlpha" operator="arithmetic" k2="-1" k3="1"/>
<feColorMatrix type="matrix" values="0 0 0 0 0 0 0 0 0 0 0 0 0 0 0 0 0 0 0.25 0"/>
<feBlend mode="normal" in2="shape" result="effect2_innerShadow_6954_39908"/>
</filter>
<filter id="filter1_di_6954_39908" x="145.32" y="10" width="69.96" height="73.88" filterUnits="userSpaceOnUse" color-interpolation-filters="sRGB">
<feFlood flood-opacity="0" result="BackgroundImageFix"/>
<feColorMatrix in="SourceAlpha" type="matrix" values="0 0 0 0 0 0 0 0 0 0 0 0 0 0 0 0 0 0 127 0" result="hardAlpha"/>
<feOffset dx="2.3" dy="21.9"/>
<feGaussianBlur stdDeviation="8.99"/>
<feComposite in2="hardAlpha" operator="out"/>
<feColorMatrix type="matrix" values="0 0 0 0 0 0 0 0 0 0 0 0 0 0 0 0 0 0 0.5 0"/>
<feBlend mode="normal" in2="BackgroundImageFix" result="effect1_dropShadow_6954_39908"/>
<feBlend mode="normal" in="SourceGraphic" in2="effect1_dropShadow_6954_39908" result="shape"/>
<feColorMatrix in="SourceAlpha" type="matrix" values="0 0 0 0 0 0 0 0 0 0 0 0 0 0 0 0 0 0 127 0" result="hardAlpha"/>
<feOffset dx="1.73" dy="2.3"/>
<feGaussianBlur stdDeviation="2.015"/>
<feComposite in2="hardAlpha" operator="arithmetic" k2="-1" k3="1"/>
<feColorMatrix type="matrix" values="0 0 0 0 0 0 0 0 0 0 0 0 0 0 0 0 0 0 0.25 0"/>
<feBlend mode="normal" in2="shape" result="effect2_innerShadow_6954_39908"/>
</filter>
</defs>
</svg>
